<?xml version="1.0" encoding="utf-8"?>
<svg version="1.1" id="Layer_1" xmlns="http://www.w3.org/2000/svg" x="0px" y="0px"
	 viewBox="0 0 512 512" style="enable-background:new 0 0 512 512;" xml:space="preserve">
<defs>
  <linearGradient id="backgroundGradient" gradientUnits="userSpaceOnUse" x1="0%" y1="0%" x2="100%" y2="100%">
    <stop offset="0%" style="stop-color:#1a1a2e"/>
    <stop offset="100%" style="stop-color:#16213e"/>
  </linearGradient>
  <linearGradient id="solanaGradient" gradientUnits="userSpaceOnUse" x1="0%" y1="0%" x2="100%" y2="100%">
    <stop offset="0%" style="stop-color:#00FFA3"/>
    <stop offset="100%" style="stop-color:#DC1FFF"/>
  </linearGradient>
</defs>

<!-- Background with rounded corners for macOS style -->
<rect x="0" y="0" width="512" height="512" rx="90" ry="90" fill="url(#backgroundGradient)"/>

<!-- Solana logo scaled and centered -->
<g transform="translate(96, 150) scale(0.8, 0.8)">
  <path fill="url(#solanaGradient)" d="M51.7,189.5c1.9-1.9,4.5-3.0,7.3-3.0h252.9c4.6,0,6.9,5.6,3.7,8.8l-50.0,50.0c-1.9,1.9-4.5,3.0-7.3,3.0H5.2
    c-4.6,0-6.9-5.6-3.7-8.8L51.7,189.5z"/>
  <path fill="url(#solanaGradient)" d="M51.7,3.0C53.6,1.1,56.3,0,59.0,0h252.9c4.6,0,6.9,5.6,3.7,8.8l-50.0,50.0c-1.9,1.9-4.5,3.0-7.3,3.0H5.2
    c-4.6,0-6.9-5.6-3.7-8.8L51.7,3.0z"/>
  <path fill="url(#solanaGradient)" d="M265.8,96.1c-1.9-1.9-4.5-3.0-7.3-3.0H5.2c-4.6,0-6.9,5.6-3.7,8.8l50.0,50.0c1.9,1.9,4.5,3.0,7.3,3.0h252.9
    c4.6,0,6.9-5.6,3.7-8.8L265.8,96.1z"/>
</g>

<!-- Optional: Add a subtle inner shadow for depth -->
<rect x="0" y="0" width="512" height="512" rx="90" ry="90" fill="none" stroke="rgba(255,255,255,0.1)" stroke-width="2"/>
</svg>